<svg xmlns="http://www.w3.org/2000/svg" viewBox="-80 -80 672 672"><path d="M232 88C232 101 243 112 256 112C269 112 280 101 280 88V24C280 11 269 0 256 0C243 0 232 11 232 24V88ZM256 208C283 208 304 229 304 256C304 283 283 304 256 304C229 304 208 283 208 256C208 229 229 208 256 208ZM256 352C309 352 352 309 352 256C352 203 309 160 256 160C203 160 160 203 160 256C160 309 203 352 256 352ZM0 256C0 269 11 280 24 280H88C101 280 112 269 112 256C112 243 101 232 88 232H24C11 232 0 243 0 256ZM424 232C411 232 400 243 400 256C400 269 411 280 424 280H488C501 280 512 269 512 256C512 243 501 232 488 232H424ZM256 512C269 512 280 501 280 488V424C280 411 269 400 256 400C243 400 232 411 232 424V488C232 501 243 512 256 512ZM75 75C66 84 66 100 75 109L120 154C130 164 145 164 154 154C164 145 164 130 154 120L109 75C100 66 84 66 75 75ZM392 358C382 348 367 348 358 358C349 367 349 382 358 392L403 437C413 446 428 446 437 437C446 428 446 412 437 403L392 358ZM75 437C84 446 100 446 109 437L154 392C164 382 164 367 154 358C145 349 130 348 120 358L75 403C66 413 66 428 75 437ZM358 120C348 130 348 145 358 154C367 163 382 164 392 154L437 109C446 100 446 84 437 75C428 66 412 66 403 75L358 120Z"/></svg>