<svg xmlns="http://www.w3.org/2000/svg" viewBox="0 0 576 512"><path d="M376 67 375 59C373 41 359 28 341 25L333 24C320 22 310 10 312 -3C314 -17 326 -26 339 -24L348 -23C387 -17 417 13 423 52L424 61C426 74 417 86 403 88C390 90 378 81 376 67ZM112 69C130 51 156 46 178 54C181 47 186 40 191 35C216 10 257 10 282 35L400 153V148C400 113 429 84 464 84C499 84 528 113 528 148V306C528 307 528 309 528 310C528 311 528 311 528 312C528 422 439 511 330 512H329H321C268 512 218 491 180 453L67 340C42 315 42 275 67 250C71 246 75 243 79 240L78 238C53 213 53 173 78 148C84 142 90 138 97 135C89 113 94 87 112 69ZM191 125 169 103C162 97 152 97 146 103C140 109 140 119 146 125L169 148L265 244C274 254 274 269 265 278C255 287 240 287 231 278L135 182C129 176 118 176 112 182C106 188 106 198 112 204L152 244L208 301C218 310 218 325 208 335C199 344 184 344 174 335L124 284C117 277 107 277 101 284C95 290 95 300 101 306L214 420C242 448 281 464 321 464H329C412 464 479 397 480 314C480 313 480 312 480 311C480 309 480 308 480 306V148C480 139 473 132 464 132C455 132 448 139 448 148V211C448 221 442 230 433 233C424 237 414 235 407 228L248 69C242 63 231 63 225 69C219 75 219 85 225 91L321 188C331 197 331 212 321 221C312 231 297 231 287 221L191 125ZM29 376C42 374 54 383 56 397L57 405C60 423 73 437 91 439L99 440C113 442 122 454 120 467C118 481 106 490 93 488L84 487C45 481 15 451 10 412L8 403C6 390 16 378 29 376Z"/></svg>