<svg xmlns="http://www.w3.org/2000/svg" viewBox="0 0 640 512"><path d="M639 21C642 13 638 5 630 1C623 -2 614 1 610 8L516 167C500 163 484 160 466 160C413 160 362 180 322 215L178 343C172 349 163 352 155 352C136 352 120 336 120 317V259L158 232C179 217 192 193 192 167V112C192 106 189 101 183 98C178 95 172 96 167 99L96 149L25 99C20 96 14 95 9 98C3 101 0 106 0 112V167C0 193 13 217 34 232L72 259V352C72 440 144 512 232 512H464C561 512 640 432 640 335C640 285 619 239 585 207L639 21ZM232 464C186 464 146 436 129 396C137 399 146 400 155 400C175 400 195 393 210 379L354 251C385 223 425 208 466 208C535 208 592 265 592 335C592 406 534 464 464 464H232ZM496 328C509 328 520 317 520 304C520 291 509 280 496 280C483 280 472 291 472 304C472 317 483 328 496 328Z"/></svg>